<svg width="110" height="110" viewBox="0 0 110 110" fill="none" xmlns="http://www.w3.org/2000/svg">
<g clip-path="url(#clip0)">
<path d="M48.9374 15.8072L40.8675 17.9695L36.5807 7.4305L47.3804 4.53675L48.9374 15.8072Z" fill="url(#paint0_linear)"/>
<path d="M47.3839 4.55016C47.5789 5.27803 45.3195 6.51568 42.3372 7.3148C39.3548 8.11392 36.7793 8.1718 36.5843 7.44393C36.3892 6.71606 38.6484 5.47758 41.6308 4.67846C44.6131 3.87934 47.1889 3.82229 47.3839 4.55016Z" fill="url(#paint1_linear)"/>
<path d="M68.7927 50.6868L79.5534 90.8463C79.7464 91.5667 79.6872 92.3077 79.4174 92.9618C79.1474 93.6149 78.6697 94.1849 78.0253 94.5599C77.7812 94.7008 77.5376 94.8407 77.2926 94.977C77.1206 95.0736 76.9511 95.1681 76.7782 95.26C76.7111 95.2981 76.6428 95.3347 76.5736 95.3702C76.4244 95.4504 76.2737 95.5297 76.1241 95.6069C76.0741 95.6337 76.0238 95.661 75.9733 95.6861C75.8167 95.767 75.6579 95.8479 75.5001 95.926C75.4304 95.9612 75.3588 95.9973 75.2892 96.0312C75.1243 96.1142 74.9584 96.194 74.7926 96.2737C74.7343 96.3014 74.6777 96.3286 74.6197 96.3571C74.416 96.4524 74.2118 96.5473 74.0076 96.6409C73.8155 96.7294 73.6214 96.8154 73.4284 96.9006C73.2802 96.9658 73.1322 97.0291 72.9838 97.0921C72.9297 97.1151 72.8763 97.1379 72.8222 97.1609C72.651 97.234 72.478 97.3054 72.3059 97.3752C72.2868 97.3839 72.268 97.3907 72.248 97.3974C72.0809 97.4659 71.9133 97.5327 71.7454 97.5978C71.6725 97.6276 71.5991 97.6557 71.5258 97.6839C71.39 97.7372 71.254 97.7884 71.1173 97.8385C70.4906 98.0743 69.8591 98.2953 69.2234 98.5028C69.0838 98.5469 68.9426 98.5936 68.8009 98.6365C68.757 98.6514 68.7153 98.6639 68.6715 98.6774L68.6637 98.68C68.0963 98.857 67.5248 99.0218 66.9509 99.176C63.0884 100.211 59.0882 100.733 55.0529 100.715C53.561 100.709 52.2588 99.7041 51.8727 98.2633L41.112 58.1038C40.3812 55.3766 40.0087 52.5771 39.9944 49.7758C39.981 46.9744 40.3255 44.1731 41.0294 41.439C42.4365 35.9697 42.4084 30.2286 40.9468 24.7742L38.3694 15.1551L49.6935 12.1208L52.2709 21.7399C52.8187 23.7842 53.5617 25.7651 54.4842 27.6537C54.6378 27.9686 54.7976 28.2815 54.961 28.5894C55.125 28.8997 55.2931 29.2054 55.4671 29.5095C55.6414 29.8131 55.8199 30.1143 56.0022 30.4126C58.1697 33.5993 59.2977 34.9525 60.5318 36.2133C64.4851 40.245 67.3307 45.2307 68.7927 50.6868Z" fill="url(#paint2_linear)"/>
<path d="M68.0376 50.3833L78.798 90.5434C78.991 91.2637 78.9429 92.0013 78.6918 92.6499C78.4412 93.2988 77.9896 93.8613 77.3766 94.2284C77.1458 94.3657 76.9125 94.5024 76.6801 94.6353C76.5164 94.7296 76.3544 94.8222 76.1907 94.9116C76.1269 94.9488 76.0624 94.9849 75.9958 95.0197C75.8549 95.0977 75.7103 95.1748 75.5688 95.2503C75.5204 95.2767 75.4729 95.3028 75.4258 95.327C75.275 95.4063 75.1242 95.4856 74.9742 95.5611C74.9076 95.5959 74.8396 95.6306 74.7731 95.6641C74.6156 95.7452 74.4598 95.8222 74.3014 95.9C74.2449 95.9272 74.1911 95.9532 74.136 95.9814C73.9418 96.0736 73.7473 96.1664 73.5532 96.2573C73.3703 96.3434 73.1853 96.4269 73.0015 96.5097C72.8602 96.5725 72.7198 96.6338 72.5777 96.6956C72.5269 96.7177 72.4769 96.7396 72.4236 96.7624C72.261 96.8327 72.0955 96.9021 71.9332 96.9697C71.9135 96.9781 71.8968 96.984 71.8769 96.9915C71.7173 97.058 71.5581 97.1225 71.3976 97.1856C71.3281 97.2145 71.2592 97.241 71.1892 97.2683C71.0595 97.3195 70.9296 97.37 70.7996 97.4182C70.2032 97.6455 69.5997 97.8595 68.9941 98.0588C68.8603 98.1014 68.7253 98.1461 68.5899 98.1877C68.5486 98.2019 68.5093 98.2138 68.4677 98.2271L68.4594 98.2294C67.9187 98.3993 67.3727 98.5576 66.8252 98.7039C63.1384 99.6918 59.313 100.168 55.4489 100.104C54.0199 100.08 52.7615 99.064 52.3754 97.6233L41.6147 57.4638C40.8843 54.736 40.4959 51.9407 40.4505 49.1483C40.4064 46.3975 40.6959 43.6476 41.3199 40.9689C41.328 40.9291 41.3376 40.8882 41.347 40.8485C41.3746 40.7263 41.4032 40.6061 41.4299 40.4841C42.1218 39.3295 45.6776 37.6521 50.1457 36.4548C54.6141 35.2571 58.5324 34.9328 59.7089 35.5867C59.7925 35.6787 59.8778 35.7702 59.9623 35.8606C59.9909 35.8905 60.0197 35.9212 60.046 35.9512C63.8349 39.9979 66.5866 44.9681 68.0376 50.3833Z" fill="url(#paint3_linear)"/>
<path d="M78.8856 91.9188C79.2993 93.4629 73.8372 96.2683 66.6858 98.1849C59.5341 100.101 53.4012 100.402 52.9874 98.8582C52.5732 97.3138 58.0352 94.5085 65.1872 92.5921C72.3392 90.6757 78.4721 90.3742 78.8856 91.9188Z" fill="url(#paint4_linear)"/>
<path d="M60.0514 35.9676C60.3508 37.0848 56.4004 39.1138 51.2292 40.4999C46.0577 41.8851 41.6216 42.1029 41.3227 40.9859C41.3212 40.9801 41.3198 40.9751 41.3194 40.9685C41.2853 40.8213 41.324 40.659 41.4291 40.4842C42.1211 39.3297 45.6771 37.6517 50.1452 36.4545C54.6138 35.2576 58.5319 34.9324 59.7084 35.5863C59.8868 35.6851 60.0015 35.8063 60.0456 35.9508C60.0485 35.9568 60.0498 35.9618 60.0514 35.9676Z" fill="url(#paint5_linear)"/>
<path d="M70.3754 56.5918C70.1081 56.9132 69.7839 57.194 69.407 57.4133C69.1362 57.5699 68.8658 57.7246 68.5944 57.8759C68.4045 57.9827 68.2159 58.0873 68.0246 58.189C67.9499 58.2318 67.875 58.2724 67.798 58.3118C67.6327 58.4004 67.4655 58.4885 67.2999 58.574C67.2445 58.604 67.1888 58.6332 67.133 58.6616C66.9586 58.7512 66.7831 58.8416 66.6082 58.9273C66.5311 58.9667 66.4516 59.0068 66.3742 59.0445C66.1915 59.1364 66.0079 59.2249 65.8237 59.3131C65.759 59.3434 65.6965 59.3736 65.6322 59.4055C65.4063 59.5112 65.1799 59.6166 64.9538 59.72C64.7406 59.8182 64.5252 59.9131 64.3117 60.0082C64.1477 60.0799 63.9832 60.1499 63.8193 60.2201C63.7587 60.2458 63.6998 60.2709 63.6397 60.2969C63.4503 60.3771 63.2585 60.4567 63.0679 60.5341C63.0463 60.5435 63.0259 60.5507 63.0035 60.5589C62.8182 60.6345 62.6325 60.7084 62.4463 60.7806C62.3653 60.8135 62.2839 60.8447 62.203 60.8762C62.052 60.935 61.9012 60.9924 61.7502 61.0476C61.0556 61.3083 60.3556 61.554 59.651 61.7843C59.4961 61.833 59.3396 61.8843 59.1822 61.9323C59.1342 61.9482 59.0877 61.9629 59.0395 61.9781L59.0306 61.98C58.4011 62.1769 57.7683 62.3598 57.1321 62.5303C52.8502 63.6772 48.4162 64.2562 43.9433 64.2363C43.5072 64.2348 43.086 64.1537 42.6938 64.009L48.1932 84.5327C48.5854 84.6774 49.0065 84.7585 49.4426 84.7601C53.9156 84.78 58.3496 84.2009 62.6309 83.0537C63.2676 82.8836 63.9004 82.7006 64.5296 82.5043L64.5388 82.5018C64.587 82.4867 64.6332 82.4725 64.6815 82.456C64.8389 82.408 64.9946 82.3569 65.1498 82.3077C65.8546 82.0782 66.5546 81.8326 67.2493 81.5718C67.4005 81.5161 67.5514 81.4587 67.7023 81.3999C67.7832 81.3684 67.8646 81.3372 67.9456 81.3043C68.1318 81.2321 68.3176 81.1582 68.5023 81.0824C68.5249 81.075 68.5451 81.0669 68.5672 81.0578C68.7573 80.9801 68.9493 80.9014 69.1385 80.8203C69.1991 80.7947 69.2577 80.77 69.3183 80.7444C69.4822 80.6741 69.6467 80.6042 69.8105 80.5317C70.0242 80.4373 70.2399 80.342 70.4531 80.2437C70.6792 80.1403 70.9051 80.0346 71.1312 79.9298C71.1953 79.897 71.2583 79.8671 71.323 79.8368C71.5066 79.7483 71.6902 79.6598 71.873 79.568C71.9509 79.5305 72.0296 79.4907 72.1072 79.4516C72.2819 79.365 72.458 79.2749 72.6315 79.1855C72.6879 79.1575 72.7433 79.1274 72.7992 79.0977C72.9648 79.0122 73.1317 78.9246 73.2968 78.8353C73.3738 78.7959 73.4492 78.7555 73.5237 78.7133C73.7152 78.611 73.9039 78.5064 74.0938 78.3996C74.3651 78.2483 74.6355 78.0936 74.9055 77.9373C75.2832 77.7177 75.6066 77.4371 75.8742 77.1152L70.3754 56.5918Z" fill="url(#paint6_linear)"/>
<path d="M55.4671 29.5095C55.2932 29.2054 55.125 28.8997 54.9607 28.5898C54.7976 28.2815 54.6378 27.9686 54.4842 27.6537C53.5617 25.7651 52.8187 23.7842 52.2709 21.7398L49.6935 12.1208L38.3694 15.1551L39.8866 20.8171L55.7403 29.9702C55.6491 29.8168 55.556 29.6644 55.4671 29.5095Z" fill="url(#paint7_linear)"/>
<path d="M50.6804 17.9249L40.4169 20.675C39.2988 20.9746 38.1497 20.3112 37.8501 19.1931L37.2488 16.9508C36.9492 15.8328 37.6127 14.6836 38.7308 14.384L48.9951 11.6337C50.1132 11.3341 51.2623 11.9976 51.5619 13.1156L52.1624 15.3581C52.4619 16.4762 51.7985 17.6253 50.6804 17.9249Z" fill="url(#paint8_linear)"/>
</g>
<defs>
<linearGradient id="paint0_linear" x1="38.7498" y1="12.0682" x2="46.4714" y2="10.8982" gradientUnits="userSpaceOnUse">
<stop stop-color="#FFB211"/>
<stop offset="0.2259" stop-color="#FAAE16"/>
<stop offset="0.502" stop-color="#EBA425"/>
<stop offset="0.8031" stop-color="#D4933E"/>
<stop offset="1" stop-color="#C08552"/>
</linearGradient>
<linearGradient id="paint1_linear" x1="39.4388" y1="3.38771" x2="44.0874" y2="8.15442" gradientUnits="userSpaceOnUse">
<stop stop-color="#FFB211"/>
<stop offset="0.2259" stop-color="#FAAE16"/>
<stop offset="0.502" stop-color="#EBA425"/>
<stop offset="0.8031" stop-color="#D4933E"/>
<stop offset="1" stop-color="#C08552"/>
</linearGradient>
<linearGradient id="paint2_linear" x1="41.6508" y1="60.1156" x2="69.3316" y2="52.6986" gradientUnits="userSpaceOnUse">
<stop stop-color="#6C7D47"/>
<stop offset="1" stop-color="#575C55"/>
</linearGradient>
<linearGradient id="paint3_linear" x1="29.1261" y1="69.5112" x2="86.6756" y2="65.7783" gradientUnits="userSpaceOnUse">
<stop stop-color="#45425A" stop-opacity="0.71"/>
<stop offset="1" stop-color="#2F004E"/>
</linearGradient>
<linearGradient id="paint4_linear" x1="67.2581" y1="98.4726" x2="62.1604" y2="86.5777" gradientUnits="userSpaceOnUse">
<stop stop-color="#45425A" stop-opacity="0"/>
<stop offset="1" stop-color="#2F004E"/>
</linearGradient>
<linearGradient id="paint5_linear" x1="47.6865" y1="33.5811" x2="55.3757" y2="46.1301" gradientUnits="userSpaceOnUse">
<stop stop-color="#45425A" stop-opacity="0"/>
<stop offset="1" stop-color="#2F004E"/>
</linearGradient>
<linearGradient id="paint6_linear" x1="45.7423" y1="75.3855" x2="73.4231" y2="67.9684" gradientUnits="userSpaceOnUse">
<stop stop-color="#FFE548"/>
<stop offset="0.2472" stop-color="#FFE042"/>
<stop offset="0.5621" stop-color="#FFD133"/>
<stop offset="0.9123" stop-color="#FFB919"/>
<stop offset="1" stop-color="#FFB211"/>
</linearGradient>
<linearGradient id="paint7_linear" x1="56.0029" y1="26.8606" x2="43.4447" y2="15.2229" gradientUnits="userSpaceOnUse">
<stop stop-color="#575C55" stop-opacity="0"/>
<stop offset="1" stop-color="#575C55"/>
</linearGradient>
<linearGradient id="paint8_linear" x1="43.6254" y1="13.97" x2="45.7106" y2="18.1874" gradientUnits="userSpaceOnUse">
<stop stop-color="#6C7D47"/>
<stop offset="1" stop-color="#575C55"/>
</linearGradient>
<clipPath id="clip0">
<rect width="80" height="80" fill="white" transform="translate(0.359009 69.641) rotate(-60)"/>
</clipPath>
</defs>
</svg>
