<svg width="28" height="28" viewBox="0 0 28 28" fill="none" xmlns="http://www.w3.org/2000/svg">
<g clip-path="url(#clip0)">
<path d="M8.29981 5.86545L6.85175 20.181C6.75047 21.1816 7.24896 22.1477 8.12325 22.645C10.5671 24.035 13.4164 24.5374 16.1881 24.067C17.1798 23.8986 17.9786 23.1616 18.226 22.1865L21.7611 8.23894L8.29981 5.86545Z" fill="#FFC66C"/>
<path d="M21.7603 8.23873C21.9635 7.08615 19.115 5.62053 15.398 4.96497C11.6807 4.30949 8.50262 4.71248 8.29941 5.86507C8.09595 7.01774 10.9448 8.4835 14.6618 9.13907C18.379 9.79431 21.5571 9.39155 21.7603 8.23873Z" fill="#FEDA9B"/>
<path d="M13.8947 20.9502L13.237 20.8571C12.8771 20.8059 12.5443 21.0564 12.4931 21.4161C12.4422 21.7759 12.6925 22.109 13.0524 22.1599L13.7101 22.253C13.8208 22.2688 13.9289 22.256 14.0271 22.2202C14.2481 22.1398 14.4186 21.9432 14.454 21.694C14.5049 21.3342 14.2546 21.0011 13.8947 20.9502Z" fill="#333333"/>
<path d="M16.6339 18.9892L15.9243 18.8714C15.566 18.812 15.2271 19.0544 15.1678 19.4129C15.1081 19.7713 15.3507 20.1102 15.709 20.1695L16.4186 20.2873C16.5342 20.3065 16.6479 20.2944 16.7508 20.2569C16.9667 20.1784 17.1351 19.9888 17.1752 19.7461C17.2346 19.3876 16.9922 19.0486 16.6339 18.9892Z" fill="#333333"/>
<path d="M13.384 12.5247C13.5108 12.5529 13.6374 12.5424 13.7512 12.501C13.9552 12.4267 14.1182 12.2531 14.1691 12.0253C14.2478 11.6707 14.0242 11.3192 13.6697 11.2401L12.8514 11.0582C12.4966 10.9792 12.1451 11.2029 12.0664 11.5575C11.9874 11.9123 12.2109 12.2636 12.5657 12.3426L13.384 12.5247Z" fill="#333333"/>
<path d="M18.6577 11.5534L17.8623 11.4381C17.5026 11.3861 17.1688 11.6353 17.1167 11.9947C17.0647 12.3544 17.3139 12.6882 17.6733 12.7403L18.469 12.8557C18.5805 12.8718 18.6891 12.859 18.7878 12.8231C19.0083 12.7428 19.1786 12.5471 19.2145 12.2989C19.2667 11.9394 19.0174 11.6054 18.6577 11.5534Z" fill="#333333"/>
<path d="M10.981 14.7084C11.2061 14.6265 11.3783 14.4241 11.4095 14.1702C11.4538 13.8097 11.1973 13.4814 10.8369 13.437L10.0835 13.3442C9.72283 13.2999 9.39449 13.5564 9.35011 13.9169C9.30582 14.2776 9.56225 14.6057 9.92281 14.6503L10.676 14.7429C10.7828 14.756 10.8866 14.7428 10.981 14.7084Z" fill="#333333"/>
<path d="M8.26448 4.6436C7.99175 4.83297 7.81939 5.03649 7.68901 5.3092C7.61061 5.47851 7.25247 8.58786 7.01914 11.1168C6.9649 11.6603 6.75169 13.9059 6.53389 16.1082C6.32104 18.3087 6.14327 20.2825 6.14461 20.5016C6.14754 20.8328 6.17529 20.986 6.35085 21.4684C6.58843 22.1365 6.83033 22.4933 7.33062 22.9138C7.73175 23.2465 9.51211 24.0908 10.3608 24.345C12.1761 24.9007 14.0914 25.0539 15.9415 24.7973C16.6715 24.6948 17.4291 24.391 17.845 24.0256C18.2236 23.6963 18.509 23.3109 18.698 22.8761C18.8857 22.453 22.4394 8.30309 22.433 8.02386C22.4314 7.9118 22.3575 7.66274 22.254 7.42449C22.1021 7.06869 22.0412 6.97823 21.7261 6.68183C21.0665 6.05466 20.0661 5.50651 18.7045 5.02787C16.296 4.18128 13.1607 3.72311 10.955 3.89522C9.8546 3.98037 8.78522 4.27386 8.26448 4.6436ZM10.4611 5.30824C11.6522 5.13376 13.4738 5.21411 15.1599 5.50708C16.7942 5.79635 18.0899 6.18634 19.3109 6.7556C20.2008 7.1694 20.7374 7.52033 20.9698 7.83559C21.1742 8.10472 21.0947 8.1787 20.3568 8.41348C19.8964 8.56417 19.6031 8.62022 19.1213 8.66606C17.119 8.84298 14.4217 8.49569 12.1363 7.75637C11.3695 7.51173 10.1036 6.94195 9.6904 6.65309C9.02894 6.18992 8.81732 5.90091 9.0447 5.7562C9.11346 5.71428 9.18849 5.65882 9.2096 5.63987C9.28595 5.57266 10.0581 5.37046 10.4611 5.30824ZM9.25297 7.94421C11.8326 9.52254 17.2608 10.4639 20.2184 9.84916L20.6507 9.75942L19.1082 15.9241C18.2584 19.3137 17.5124 22.2038 17.4515 22.3443C17.3014 22.6861 16.9279 23.0754 16.5696 23.2453C16.0356 23.5016 14.4016 23.6289 13.1303 23.5059C11.7221 23.3765 10.5129 23.0395 9.21401 22.4254C8.16013 21.9305 7.91945 21.7309 7.66945 21.1517C7.57136 20.9284 7.50789 20.6925 7.50088 20.5655C7.49568 20.4435 7.74276 17.8138 8.04782 14.7125C8.35288 11.6112 8.63323 8.74981 8.67337 8.35227C8.71037 7.9615 8.76463 7.64892 8.79165 7.66161C8.82049 7.67927 9.02907 7.80608 9.25297 7.94421Z" fill="#333333"/>
</g>
<defs>
<clipPath id="clip0">
<rect width="20" height="21.9079" fill="white" transform="translate(0.856567 7.08081) rotate(-20)"/>
</clipPath>
</defs>
</svg>
