<svg width="113" height="113" viewBox="0 0 113 113" fill="none" xmlns="http://www.w3.org/2000/svg">
<g clip-path="url(#clip0)">
<path d="M59.3653 63.3822L62.9562 60.3691L79.2636 79.8036L75.6728 82.8166L59.3653 63.3822Z" fill="#CAD8FD"/>
<path d="M61.1608 61.8757L62.9562 60.3691L79.2636 79.8036L77.4682 81.3101L61.1608 61.8757Z" fill="#B5C9F5"/>
<path d="M64.2099 36.0311C64.196 36.0173 64.1816 36.0039 64.1671 35.9905L43.9964 17.1915C43.1304 16.3845 41.7986 16.3498 40.892 17.1105L20.5954 34.1414C19.6888 34.9022 19.4916 36.2197 20.1361 37.2127L35.1468 60.3414C35.1575 60.3579 35.1682 60.3745 35.1797 60.3911C38.2568 64.8795 43.1029 67.8756 48.4749 68.6099C53.7791 69.3356 59.1633 67.7865 63.246 64.3607C67.3282 60.9353 69.7888 55.902 69.9956 50.5519C70.2053 45.134 68.0963 39.8413 64.2099 36.0311Z" fill="#E6486D"/>
<path d="M64.2099 36.0311C64.196 36.0173 64.1815 36.0039 64.1671 35.9905L43.9964 17.1915C43.1304 16.3845 41.7986 16.3498 40.892 17.1106L30.7437 25.626L63.246 64.3607C67.3287 60.9349 69.7887 55.902 69.9956 50.5519C70.2053 45.134 68.0962 39.8413 64.2099 36.0311Z" fill="#A3324C"/>
<path d="M91.4029 73.6068L73.9479 75.0001C72.9527 75.0798 72.1172 75.7809 71.8658 76.7471L67.4622 93.6955C67.206 94.6825 67.6168 95.7218 68.4789 96.2669C69.3406 96.8114 70.4558 96.7362 71.2371 96.0806L93.0958 77.7389C93.8771 77.0834 94.1449 75.9981 93.7582 75.055C93.3716 74.1109 92.4195 73.5259 91.4029 73.6068Z" fill="#CAD8FD"/>
<path d="M91.4029 73.6068L73.9479 75.0001C73.45 75.0402 72.9924 75.2354 72.6281 75.5419L82.1667 86.9096L93.0963 77.7386C93.8771 77.0834 94.1449 75.9982 93.7582 75.055C93.3716 74.1109 92.4195 73.5259 91.4029 73.6068Z" fill="#B5C9F5"/>
<path d="M63.3964 35.2724L43.9964 17.1915C43.1303 16.3845 41.7986 16.3498 40.892 17.1106L20.5954 34.1414C19.6888 34.9022 19.4916 36.2197 20.136 37.2127L34.5734 59.4577L63.3964 35.2724Z" fill="#CAD8FD"/>
<path d="M48.9849 47.365L63.3964 35.2724L43.9964 17.1915C43.1303 16.3845 41.7986 16.3498 40.892 17.1106L30.7437 25.626L48.9849 47.365Z" fill="#B5C9F5"/>
</g>
<defs>
<clipPath id="clip0">
<rect width="80" height="80" fill="white" transform="translate(0 51.423) rotate(-40)"/>
</clipPath>
</defs>
</svg>
