<svg width="110" height="110" viewBox="0 0 110 110" fill="none" xmlns="http://www.w3.org/2000/svg">
<g clip-path="url(#clip0)">
<path d="M61.3262 17.9057L67.4154 21.4214L65.0717 25.4809L58.9824 21.9652L61.3262 17.9057Z" fill="#444444"/>
<path d="M75.5344 26.1089L81.6236 29.6245L79.2799 33.684L73.1906 30.1684L75.5344 26.1089Z" fill="#333333"/>
<path d="M79.986 23.0859L72.7985 35.5351L64.8936 36.3838L64.5532 35.7538L60.62 28.5038L67.8075 16.0547L79.986 23.0859Z" fill="#5A5A5A"/>
<path d="M64.8936 36.3838L64.5532 35.7538L73.8968 19.5703L79.986 23.0859L72.7985 35.5351L64.8936 36.3838Z" fill="#444444"/>
<path d="M73.9473 60.883L73.5739 56.2111C75.888 56.0249 77.9607 54.7189 79.1176 52.715C81.0561 49.3575 79.9021 45.049 76.544 43.1102C74.1892 41.7506 71.327 41.8558 69.074 43.3826L66.446 39.503C70.1393 36.9964 75.0244 36.8201 78.8878 39.0507C84.4838 42.2816 86.4077 49.4632 83.1771 55.0588C81.2487 58.3989 77.798 60.5768 73.9473 60.883Z" fill="#962A3A"/>
<path d="M73.5125 68.4232L50.9928 60.8341L50.3735 60.3138L31.7811 44.3296C33.0284 42.4512 34.4371 40.6667 36.1881 39.1341C39.5623 36.1023 44.2367 34.8494 48.6744 35.7884C53.0948 36.6625 57.3388 34.1871 59.1436 31.0611L60.62 28.5038L72.7985 35.5351L71.3221 38.0923C69.4706 41.2992 69.5529 46.2189 72.4632 49.5229C75.4945 52.8968 76.7474 57.5711 75.8089 62.0092C75.3566 64.2916 74.5161 66.4041 73.5125 68.4232Z" fill="#CF5668"/>
<path d="M73.5125 68.4232L50.9928 60.8341L50.3735 60.3138L66.7093 32.0194L72.7985 35.5351L71.3221 38.0923C69.4706 41.2992 69.5529 46.2189 72.4632 49.5229C75.4945 52.8968 76.7474 57.5711 75.8089 62.0092C75.3566 64.2916 74.5161 66.4041 73.5125 68.4232Z" fill="#B03244"/>
<path d="M71.0471 72.4125C70.0881 73.6989 69.0304 74.8742 67.8508 75.9798C67.3198 76.4308 62.8513 74.6086 62.2796 75.0361L64.0455 79.1954L60.078 82.3174L53.7724 81.7082L56.1104 85.4394L52.1434 88.5617L36.3342 84.6306L35.6316 84.4413L25.0257 72.9053L25.7456 67.9083L30.1528 67.9628L26.4656 62.9113L27.1855 57.9143L31.6711 57.3643C31.7555 56.6554 27.9427 53.6964 28.0678 53.011C28.4354 51.4367 28.9249 49.9334 29.5594 48.4596C29.8173 48.0129 34.0126 49.8395 34.2704 49.3929C34.7452 48.4766 31.2656 45.2223 31.7811 44.3296L73.5125 68.4232C73.0907 69.1537 68.6499 67.5645 68.2281 68.295C67.8765 68.9039 71.3987 71.8036 71.0471 72.4125Z" fill="#F6A96C"/>
<path d="M71.0471 72.4125C70.0881 73.6989 69.0304 74.8742 67.8508 75.9798C67.3198 76.4308 62.8513 74.6086 62.2796 75.0361L64.0455 79.1954L60.078 82.3174L53.7724 81.7082L56.1104 85.4394L52.1434 88.5617L36.3342 84.6306L52.6468 56.3764L73.5125 68.4232C73.0907 69.1537 68.6499 67.5645 68.2281 68.295C67.8765 68.9039 71.3987 71.8036 71.0471 72.4125Z" fill="#EF9456"/>
<path d="M54.5083 95.3397L52.1645 99.3992L15.6291 78.3055L17.9728 74.246C19.2619 72.0132 22.1433 71.2412 24.3761 72.5302L52.7925 88.9365C55.0252 90.2255 55.7973 93.107 54.5083 95.3397Z" fill="#FED2A4"/>
<path d="M73.5124 68.4232C72.8205 69.8096 71.983 71.1662 71.0471 72.4125L29.5589 48.4593C30.1702 47.0256 30.9263 45.622 31.7811 44.3296L73.5124 68.4232Z" fill="#FED2A4"/>
<path d="M67.8508 75.9798C67.3198 76.4308 66.9108 76.9523 66.3391 77.3799L64.0455 79.1954L27.1855 57.9143L27.6116 55.0205C27.696 54.3116 27.9427 53.6964 28.0677 53.011L67.8508 75.9798Z" fill="#FED2A4"/>
<path d="M60.078 82.3174L56.1104 85.4394L25.7456 67.9083L26.4656 62.9113L60.078 82.3174Z" fill="#FED2A4"/>
<path d="M56.1104 85.4394L40.928 76.6739L43.2718 72.6144L60.078 82.3174L56.1104 85.4394Z" fill="#F6A96C"/>
<path d="M54.5082 95.3397L52.1645 99.3992L33.8968 88.8523L38.5843 80.7334L52.7925 88.9365C55.0252 90.2255 55.7973 93.107 54.5082 95.3397Z" fill="#F6A96C"/>
<path d="M47.9593 64.4954L67.8508 75.9798C67.3198 76.4308 66.9108 76.9523 66.3391 77.3799L64.0455 79.1954L45.6155 68.5549L47.9593 64.4954Z" fill="#F6A96C"/>
<path d="M73.5125 68.4232C72.8206 69.8096 71.9831 71.1663 71.0472 72.4125L50.303 60.4359L52.6468 56.3764L73.5125 68.4232Z" fill="#F6A96C"/>
</g>
<defs>
<clipPath id="clip0">
<rect width="80" height="80" fill="white" transform="translate(40) rotate(30)"/>
</clipPath>
</defs>
</svg>
