<svg style="transform: rotate(90deg);" width="93" height="93" viewBox="0 0 93 93" fill="none" xmlns="http://www.w3.org/2000/svg">
<g clip-path="url(#clip0)">
<path d="M70.2293 50.593C69.9249 52.3193 68.2725 53.4763 66.5462 53.1719C64.8199 52.8675 63.6629 51.2151 63.9672 49.4888C64.7205 45.217 61.8579 41.1287 57.586 40.3755C53.3141 39.6222 49.2259 42.4849 48.4726 46.7567C48.1682 48.483 46.5158 49.64 44.7895 49.3357C43.0632 49.0313 41.9068 47.379 42.2112 45.6527C42.436 44.3778 41.5843 43.1622 40.31 42.9375L29.4317 41.0194C28.1568 40.7946 26.9414 41.6457 26.7166 42.9205C26.4918 44.1954 27.3429 45.4109 28.6177 45.6357L37.539 47.2087C37.9685 50.5302 40.5073 53.3404 43.9756 53.9519C48.248 54.7053 52.3357 51.8426 53.0889 47.5707C53.3933 45.8444 55.0457 44.6874 56.772 44.9918C58.4983 45.2962 59.6554 46.9486 59.351 48.6749C58.5977 52.9467 61.4603 57.035 65.7322 57.7882C70.0041 58.5415 74.0923 55.6788 74.8456 51.407C75.15 49.6807 76.8018 48.5235 78.5281 48.8279C80.2544 49.1323 81.4114 50.7847 81.107 52.511C80.8822 53.7859 81.7339 55.0015 83.0082 55.2262C84.2831 55.451 85.4985 54.5999 85.7233 53.325C86.4765 49.0531 83.6139 44.9649 79.3421 44.2117C75.0702 43.4584 70.9825 46.3211 70.2293 50.593Z" fill="#98B4B9"/>
<path d="M10.6441 18.4188L3.23334 60.4474C2.40803 65.128 5.54433 69.6079 10.2255 70.4333L17.6422 71.7411C22.3229 72.5664 26.8021 69.43 27.6275 64.7488L35.0383 22.7201C35.8636 18.0395 32.7272 13.5603 28.0466 12.735L20.6299 11.4272C15.9487 10.6018 11.4694 13.7382 10.6441 18.4188Z" fill="#FF9F00"/>
<path d="M40.3101 42.9375L29.4324 41.0194C28.1575 40.7946 26.942 41.6457 26.7172 42.9206L42.2113 45.6526C42.436 44.3777 41.585 43.1623 40.3101 42.9375Z" fill="#8DB9C4"/>
<path d="M57.5861 40.3754C53.3142 39.6222 49.2265 42.4849 48.4733 46.7568L53.0896 47.5707C53.394 45.8444 55.0458 44.6873 56.7721 44.9917C58.4984 45.2961 59.6554 46.9485 59.351 48.6748L63.9673 49.4888C64.7206 45.2169 61.8579 41.1287 57.5861 40.3754Z" fill="#8DB9C4"/>
<path d="M70.2293 50.5929L74.8456 51.4069C75.15 49.6806 76.8018 48.5235 78.5281 48.8279C80.2544 49.1323 81.4115 50.7847 81.1071 52.511L85.7234 53.325C86.4766 49.0531 83.614 44.9648 79.3421 44.2116C75.0702 43.4583 70.9826 46.3211 70.2293 50.5929Z" fill="#8DB9C4"/>
<path d="M10.6441 18.4189L6.93872 39.4332L31.3329 43.7345L35.0383 22.7202C35.8636 18.0396 32.7272 13.5603 28.0466 12.735L20.6299 11.4273C15.9487 10.6018 11.4694 13.7383 10.6441 18.4189Z" fill="#F77E00"/>
</g>
<defs>
<clipPath id="clip0">
<rect width="80" height="80" fill="white" transform="translate(0 78.7846) rotate(-80)"/>
</clipPath>
</defs>
</svg>
